UoqMunThenKhung-Bold.ufo
<glyph name="softhyphen" format="2">
  <advance width="750" height="1000"/>
  <unicode hex="00AD"/>
  <outline>
    <contour>
      <point x="679" y="333" type="line"/>
      <point x="72" y="333" type="line"/>
      <point x="72" y="392" type="line"/>
      <point x="679" y="392" type="line"/>
    </contour>
  </outline>
</glyph>
<glyph name="boxdrawingslighthorizontal" format="2">
  <advance width="1000" height="1000"/>
  <unicode hex="2500"/>
  <outline>
    <contour>
      <point x="999" y="359" type="line"/>
      <point x="1" y="359" type="line"/>
      <point x="1" y="400" type="line"/>
      <point x="999" y="400" type="line"/>
    </contour>
  </outline>
</glyph>
<glyph name="boxdrawingsheavyupandright" format="2">
  <advance width="1000" height="1000"/>
  <unicode hex="2517"/>
  <outline>
    <contour>
      <point x="998" y="317" type="line"/>
      <point x="438" y="317" type="line"/>
      <point x="438" y="878" type="line"/>
      <point x="561" y="878" type="line"/>
      <point x="561" y="440" type="line"/>
      <point x="998" y="440" type="line"/>
    </contour>
  </outline>
</glyph>
<glyph name="boxdrawingsdownlightandrightupheavy" format="2">
  <advance width="1000" height="1000"/>
  <unicode hex="2521"/>
  <outline>
    <contour>
      <point x="999" y="316" type="line"/>
      <point x="519" y="316" type="line"/>
      <point x="519" y="-119" type="line"/>
      <point x="478" y="-119" type="line"/>
      <point x="478" y="316" type="line"/>
      <point x="438" y="316" type="line"/>
      <point x="438" y="879" type="line"/>
      <point x="561" y="879" type="line"/>
      <point x="561" y="440" type="line"/>
      <point x="999" y="440" type="line"/>
    </contour>
  </outline>
</glyph>
<glyph name="boxdrawingsheavyverticalandright" format="2">
  <advance width="1000" height="1000"/>
  <unicode hex="2523"/>
  <outline>
    <contour>
      <point x="998" y="317" type="line"/>
      <point x="561" y="317" type="line"/>
      <point x="561" y="-119" type="line"/>
      <point x="438" y="-119" type="line"/>
      <point x="438" y="879" type="line"/>
      <point x="561" y="879" type="line"/>
      <point x="561" y="441" type="line"/>
      <point x="998" y="441" type="line"/>
    </contour>
  </outline>
</glyph>
<glyph name="boxdrawingsdoublehorizontal" format="2">
  <advance width="1000" height="1000"/>
  <unicode hex="2550"/>
  <outline>
    <contour>
      <point x="997" y="142" type="line"/>
      <point x="1" y="142" type="line"/>
      <point x="1" y="253" type="line"/>
      <point x="997" y="253" type="line"/>
    </contour>
    <contour>
      <point x="997" y="513" type="line"/>
      <point x="1" y="513" type="line"/>
      <point x="1" y="625" type="line"/>
      <point x="997" y="625" type="line"/>
    </contour>
  </outline>
</glyph>
<glyph name="boxdrawingsverticalsingleandrightdouble" format="2">
  <advance width="1000" height="1000"/>
  <unicode hex="255E"/>
  <outline>
    <contour>
      <point x="1002" y="142" type="line"/>
      <point x="556" y="142" type="line"/>
      <point x="556" y="-117" type="line"/>
      <point x="444" y="-117" type="line"/>
      <point x="444" y="883" type="line"/>
      <point x="556" y="883" type="line"/>
      <point x="556" y="625" type="line"/>
      <point x="1002" y="625" type="line"/>
      <point x="1002" y="513" type="line"/>
      <point x="556" y="513" type="line"/>
      <point x="556" y="253" type="line"/>
      <point x="1002" y="253" type="line"/>
    </contour>
  </outline>
</glyph>
<glyph name="boxdrawingsverticalsingleandleftdouble" format="2">
  <advance width="1000" height="1000"/>
  <unicode hex="2561"/>
  <outline>
    <contour>
      <point x="556" y="-117" type="line"/>
      <point x="444" y="-117" type="line"/>
      <point x="444" y="142" type="line"/>
      <point x="0" y="142" type="line"/>
      <point x="0" y="253" type="line"/>
      <point x="444" y="253" type="line"/>
      <point x="444" y="513" type="line"/>
      <point x="0" y="513" type="line"/>
      <point x="0" y="625" type="line"/>
      <point x="444" y="625" type="line"/>
      <point x="444" y="880" type="line"/>
      <point x="556" y="880" type="line"/>
    </contour>
  </outline>
</glyph>
<glyph name="boxdrawingslightarcdownandright" format="2">
  <advance width="1000" height="1000"/>
  <unicode hex="256D"/>
  <outline>
    <contour>
      <point x="1000" y="321" type="line"/>
      <point x="909" y="321"/>
      <point x="749" y="252"/>
      <point x="627" y="131"/>
      <point x="558" y="-28"/>
      <point x="558" y="-120" type="qcurve"/>
      <point x="446" y="-120" type="line"/>
      <point x="446" y="-6"/>
      <point x="533" y="195"/>
      <point x="685" y="346"/>
      <point x="886" y="433"/>
      <point x="1000" y="433" type="qcurve"/>
    </contour>
  </outline>
</glyph>
<glyph name="boxdrawingslightarcupandleft" format="2">
  <advance width="1000" height="1000"/>
  <unicode hex="256F"/>
  <outline>
    <contour>
      <point x="554" y="880" type="line"/>
      <point x="554" y="765"/>
      <point x="468" y="564"/>
      <point x="316" y="412"/>
      <point x="115" y="326"/>
      <point x="0" y="326" type="qcurve"/>
      <point x="0" y="437" type="line"/>
      <point x="92" y="437"/>
      <point x="251" y="506"/>
      <point x="373" y="628"/>
      <point x="442" y="789"/>
      <point x="442" y="880" type="qcurve"/>
    </contour>
  </outline>
</glyph>
<glyph name="boxdrawingslightdiagonalupperrighttolowerleft" format="2">
  <advance width="1000" height="1000"/>
  <unicode hex="2571"/>
  <outline>
    <contour>
      <point x="920" y="773" type="line"/>
      <point x="114" y="-84" type="line"/>
      <point x="73" y="-45" type="line"/>
      <point x="879" y="812" type="line"/>
    </contour>
  </outline>
</glyph>
<glyph name="boxdrawingslightdiagonalcross" format="2">
  <advance width="1000" height="1000"/>
  <unicode hex="2573"/>
  <outline>
    <contour>
      <point x="809" y="636" type="line"/>
      <point x="543" y="370" type="line"/>
      <point x="803" y="111" type="line"/>
      <point x="756" y="65" type="line"/>
      <point x="497" y="324" type="line"/>
      <point x="239" y="66" type="line"/>
      <point x="191" y="113" type="line"/>
      <point x="450" y="371" type="line"/>
      <point x="201" y="620" type="line"/>
      <point x="247" y="667" type="line"/>
      <point x="496" y="419" type="line"/>
      <point x="761" y="684" type="line"/>
    </contour>
  </outline>
</glyph>
<glyph name="lowerhalfblock" format="2">
  <advance width="1000" height="1000"/>
  <unicode hex="2584"/>
  <outline>
    <contour>
      <point x="1001" y="-121" type="line"/>
      <point x="2" y="-121" type="line"/>
      <point x="2" y="380" type="line"/>
      <point x="1001" y="380" type="line"/>
    </contour>
  </outline>
</glyph>
<glyph name="lowerthreequartersblock" format="2">
  <advance width="1000" height="1000"/>
  <unicode hex="2586"/>
  <outline>
    <contour>
      <point x="999" y="-121" type="line"/>
      <point x="0" y="-121" type="line"/>
      <point x="0" y="632" type="line"/>
      <point x="999" y="632" type="line"/>
    </contour>
  </outline>
</glyph>
<glyph name="leftthreequartersblock" format="2">
  <advance width="1000" height="1000"/>
  <unicode hex="258A"/>
  <outline>
    <contour>
      <point x="755" y="-120" type="line"/>
      <point x="1" y="-120" type="line"/>
      <point x="1" y="878" type="line"/>
      <point x="755" y="878" type="line"/>
    </contour>
  </outline>
</glyph>
<glyph name="lefthalfblock" format="2">
  <advance width="1000" height="1000"/>
  <unicode hex="258C"/>
  <outline>
    <contour>
      <point x="502" y="-120" type="line"/>
      <point x="0" y="-120" type="line"/>
      <point x="0" y="878" type="line"/>
      <point x="502" y="878" type="line"/>
    </contour>
  </outline>
</glyph>
<glyph name="blacklowerlefttriangle" format="2">
  <advance width="1000" height="1000"/>
  <unicode hex="25E3"/>
  <outline>
    <contour>
      <point x="999" y="-121" type="line"/>
      <point x="1" y="-121" type="line"/>
      <point x="1" y="876" type="line"/>
    </contour>
  </outline>
</glyph>
<glyph name="blackupperlefttriangle" format="2">
  <advance width="1000" height="1000"/>
  <unicode hex="25E4"/>
  <outline>
    <contour>
      <point x="0" y="-120" type="line"/>
      <point x="0" y="880" type="line"/>
      <point x="1000" y="880" type="line"/>
    </contour>
  </outline>
</glyph>
<glyph name="blackupperrighttriangle" format="2">
  <advance width="1000" height="1000"/>
  <unicode hex="25E5"/>
  <outline>
    <contour>
      <point x="1000" y="-120" type="line"/>
      <point x="0" y="880" type="line"/>
      <point x="1000" y="880" type="line"/>
    </contour>
  </outline>
</glyph>
<glyph name="u514A" format="2">
  <advance width="1000" height="1000"/>
  <unicode hex="514A"/>
  <outline>
    <contour>
      <point x="455" y="303" type="line"/>
      <point x="433" y="180"/>
      <point x="306" y="5"/>
      <point x="188" y="-42" type="qcurve"/>
      <point x="163" y="-52"/>
      <point x="94" y="-68"/>
      <point x="68" y="-68" type="qcurve"/>
      <point x="64" y="-68"/>
      <point x="55" y="-66"/>
      <point x="55" y="-61" type="qcurve"/>
      <point x="55" y="-58"/>
      <point x="62" y="-52"/>
      <point x="64" y="-51" type="qcurve"/>
      <point x="90" y="-39"/>
      <point x="138" y="-14"/>
      <point x="161" y="2" type="qcurve"/>
      <point x="244" y="61"/>
      <point x="320" y="226"/>
      <point x="330" y="324" type="qcurve"/>
    </contour>
    <contour>
      <point x="978" y="63" type="qcurve"/>
      <point x="978" y="44"/>
      <point x="948" y="9"/>
      <point x="908" y="-18"/>
      <point x="892" y="-25" type="qcurve"/>
      <point x="849" y="-44"/>
      <point x="747" y="-70"/>
      <point x="699" y="-70" type="qcurve"/>
      <point x="674" y="-70"/>
      <point x="606" y="-61"/>
      <point x="543" y="-38"/>
      <point x="501" y="5"/>
      <point x="501" y="39" type="qcurve"/>
      <point x="501" y="331" type="line"/>
      <point x="619" y="331" type="line"/>
      <point x="619" y="64" type="line"/>
      <point x="619" y="26"/>
      <point x="670" y="-2"/>
      <point x="703" y="-2" type="qcurve"/>
      <point x="745" y="-2"/>
      <point x="839" y="13"/>
      <point x="879" y="26" type="qcurve"/>
      <point x="855" y="40"/>
      <point x="855" y="69" type="qcurve"/>
      <point x="855" y="91"/>
      <point x="896" y="124"/>
      <point x="917" y="124" type="qcurve"/>
      <point x="942" y="124"/>
      <point x="978" y="88"/>
    </contour>
    <contour>
      <point x="453" y="775" type="line"/>
      <point x="434" y="739"/>
      <point x="364" y="662"/>
      <point x="279" y="590"/>
      <point x="193" y="530"/>
      <point x="157" y="511" type="qcurve"/>
      <point x="138" y="501"/>
      <point x="80" y="482"/>
      <point x="59" y="481" type="qcurve"/>
      <point x="57" y="481" type="line"/>
      <point x="46" y="481"/>
      <point x="46" y="490" type="qcurve"/>
      <point x="46" y="492"/>
      <point x="54" y="499"/>
      <point x="55" y="500" type="qcurve"/>
      <point x="81" y="519"/>
      <point x="108" y="541" type="qcurve"/>
      <point x="149" y="575"/>
      <point x="229" y="670"/>
      <point x="298" y="774"/>
      <point x="321" y="821" type="qcurve"/>
    </contour>
    <contour>
      <point x="786" y="359" type="qcurve"/>
      <point x="786" y="352"/>
      <point x="775" y="341"/>
      <point x="768" y="341" type="qcurve"/>
      <point x="757" y="341"/>
      <point x="731" y="360"/>
      <point x="723" y="367" type="qcurve"/>
      <point x="709" y="378"/>
      <point x="678" y="399"/>
      <point x="664" y="411" type="qcurve"/>
      <point x="621" y="394"/>
      <point x="504" y="371"/>
      <point x="376" y="356"/>
      <point x="255" y="348"/>
      <point x="207" y="345" type="qcurve"/>
      <point x="191" y="421" type="line"/>
      <point x="217" y="423"/>
      <point x="270" y="435"/>
      <point x="289" y="454" type="qcurve"/>
      <point x="333" y="498"/>
      <point x="396" y="614"/>
      <point x="427" y="668" type="qcurve"/>
      <point x="432" y="666"/>
      <point x="471" y="653"/>
      <point x="517" y="637"/>
      <point x="552" y="626"/>
      <point x="553" y="626" type="qcurve"/>
      <point x="555" y="626"/>
      <point x="556" y="620"/>
      <point x="556" y="619" type="qcurve"/>
      <point x="556" y="614"/>
      <point x="552" y="610" type="qcurve"/>
      <point x="524" y="581"/>
      <point x="466" y="526"/>
      <point x="437" y="498" type="qcurve"/>
      <point x="418" y="480"/>
      <point x="380" y="444"/>
      <point x="359" y="428" type="qcurve"/>
      <point x="426" y="428"/>
      <point x="559" y="435"/>
      <point x="624" y="446" type="qcurve"/>
      <point x="608" y="460"/>
      <point x="573" y="485"/>
      <point x="556" y="498" type="qcurve"/>
      <point x="646" y="559" type="line"/>
      <point x="664" y="545"/>
      <point x="711" y="497"/>
      <point x="756" y="440"/>
      <point x="786" y="383"/>
    </contour>
    <contour>
      <point x="969" y="524" type="qcurve"/>
      <point x="969" y="505"/>
      <point x="930" y="478"/>
      <point x="913" y="478" type="qcurve"/>
      <point x="895" y="478"/>
      <point x="877" y="484" type="qcurve"/>
      <point x="836" y="497"/>
      <point x="736" y="560"/>
      <point x="638" y="644"/>
      <point x="560" y="733"/>
      <point x="541" y="771" type="qcurve"/>
      <point x="676" y="819" type="line"/>
      <point x="708" y="746"/>
      <point x="810" y="599"/>
      <point x="868" y="545" type="qcurve"/>
      <point x="876" y="557"/>
      <point x="906" y="578"/>
      <point x="920" y="578" type="qcurve"/>
      <point x="939" y="578"/>
      <point x="969" y="542"/>
    </contour>
  </outline>
</glyph>
<glyph name="u516C" format="2">
  <advance width="1000" height="1000"/>
  <unicode hex="516C"/>
  <outline>
    <contour>
      <point x="842" y="-16" type="qcurve"/>
      <point x="842" y="-41"/>
      <point x="798" y="-74"/>
      <point x="775" y="-74" type="qcurve"/>
      <point x="755" y="-74"/>
      <point x="715" y="-49"/>
      <point x="715" y="-26" type="qcurve"/>
      <point x="715" y="-6"/>
      <point x="742" y="26"/>
      <point x="762" y="30" type="qcurve"/>
      <point x="747" y="47"/>
      <point x="714" y="81"/>
      <point x="697" y="96" type="qcurve"/>
      <point x="664" y="66"/>
      <point x="572" y="9"/>
      <point x="528" y="0" type="qcurve"/>
      <point x="436" y="-19"/>
      <point x="247" y="-42"/>
      <point x="153" y="-45" type="qcurve"/>
      <point x="127" y="53" type="line"/>
      <point x="147" y="55"/>
      <point x="194" y="66"/>
      <point x="208" y="80" type="qcurve"/>
      <point x="222" y="94"/>
      <point x="245" y="134"/>
      <point x="255" y="151" type="qcurve"/>
      <point x="301" y="231"/>
      <point x="376" y="398"/>
      <point x="410" y="483" type="qcurve"/>
      <point x="432" y="477"/>
      <point x="474" y="461"/>
      <point x="495" y="453" type="qcurve"/>
      <point x="507" y="449"/>
      <point x="532" y="440"/>
      <point x="544" y="435" type="qcurve"/>
      <point x="550" y="432"/>
      <point x="550" y="426" type="qcurve"/>
      <point x="550" y="421"/>
      <point x="537" y="404"/>
      <point x="534" y="399" type="qcurve"/>
      <point x="497" y="341"/>
      <point x="420" y="229"/>
      <point x="379" y="173" type="qcurve"/>
      <point x="357" y="143"/>
      <point x="314" y="84"/>
      <point x="290" y="56" type="qcurve"/>
      <point x="343" y="58"/>
      <point x="449" y="65"/>
      <point x="501" y="71" type="qcurve"/>
      <point x="545" y="76"/>
      <point x="628" y="102"/>
      <point x="666" y="125" type="qcurve"/>
      <point x="638" y="152"/>
      <point x="578" y="204"/>
      <point x="549" y="230" type="qcurve"/>
      <point x="644" y="292" type="line"/>
      <point x="668" y="268"/>
      <point x="734" y="193"/>
      <point x="799" y="104"/>
      <point x="842" y="18"/>
    </contour>
    <contour>
      <point x="421" y="740" type="qcurve"/>
      <point x="421" y="736"/>
      <point x="419" y="732" type="qcurve"/>
      <point x="399" y="692"/>
      <point x="337" y="599"/>
      <point x="262" y="509"/>
      <point x="183" y="431"/>
      <point x="146" y="405" type="qcurve"/>
      <point x="136" y="398"/>
      <point x="100" y="377"/>
      <point x="63" y="361"/>
      <point x="51" y="361" type="qcurve"/>
      <point x="42" y="361"/>
      <point x="42" y="369" type="qcurve"/>
      <point x="42" y="375"/>
      <point x="47" y="380" type="qcurve"/>
      <point x="124" y="475"/>
      <point x="246" y="686"/>
      <point x="286" y="801" type="qcurve"/>
      <point x="407" y="754" type="line"/>
      <point x="414" y="752"/>
      <point x="421" y="749"/>
    </contour>
    <contour>
      <point x="982" y="410" type="qcurve"/>
      <point x="982" y="390"/>
      <point x="946" y="360"/>
      <point x="927" y="360" type="qcurve"/>
      <point x="900" y="360"/>
      <point x="843" y="388"/>
      <point x="792" y="428"/>
      <point x="772" y="445" type="qcurve"/>
      <point x="704" y="506"/>
      <point x="594" y="651"/>
      <point x="556" y="734" type="qcurve"/>
      <point x="553" y="740"/>
      <point x="553" y="746" type="qcurve"/>
      <point x="553" y="751"/>
      <point x="560" y="755"/>
      <point x="564" y="756" type="qcurve"/>
      <point x="575" y="761"/>
      <point x="598" y="766"/>
      <point x="609" y="770" type="qcurve"/>
      <point x="693" y="795" type="line"/>
      <point x="723" y="702"/>
      <point x="814" y="508"/>
      <point x="878" y="434" type="qcurve"/>
      <point x="885" y="447"/>
      <point x="913" y="467"/>
      <point x="928" y="467" type="qcurve"/>
      <point x="953" y="467"/>
      <point x="982" y="434"/>
    </contour>
  </outline>
</glyph>
<glyph name="u51ED" format="2">
  <advance width="1000" height="1000"/>
  <unicode hex="51ED"/>
  <outline>
    <contour>
      <point x="989" y="25" type="qcurve"/>
      <point x="989" y="6"/>
      <point x="955" y="-24"/>
      <point x="906" y="-46"/>
      <point x="858" y="-61"/>
      <point x="843" y="-64" type="qcurve"/>
      <point x="770" y="-81"/>
      <point x="700" y="-81" type="qcurve"/>
      <point x="664" y="-81"/>
      <point x="591" y="-66"/>
      <point x="542" y="-21"/>
      <point x="542" y="24" type="qcurve"/>
      <point x="542" y="226" type="line"/>
      <point x="398" y="226" type="line"/>
      <point x="382" y="96"/>
      <point x="247" y="-47"/>
      <point x="124" y="-82" type="qcurve"/>
      <point x="113" y="-85"/>
      <point x="88" y="-90"/>
      <point x="76" y="-90" type="qcurve"/>
      <point x="73" y="-90"/>
      <point x="60" y="-88"/>
      <point x="60" y="-83" type="qcurve"/>
      <point x="60" y="-76"/>
      <point x="72" y="-69"/>
      <point x="76" y="-67" type="qcurve"/>
      <point x="97" y="-56"/>
      <point x="139" y="-32"/>
      <point x="158" y="-17" type="qcurve"/>
      <point x="202" y="18"/>
      <point x="250" y="111"/>
      <point x="270" y="217"/>
      <point x="270" y="270" type="qcurve"/>
      <point x="664" y="270" type="line"/>
      <point x="664" y="28" type="line"/>
      <point x="664" y="9"/>
      <point x="688" y="-12"/>
      <point x="723" y="-19"/>
      <point x="738" y="-19" type="qcurve"/>
      <point x="777" y="-19"/>
      <point x="855" y="-12"/>
      <point x="892" y="-3" type="qcurve"/>
      <point x="880" y="9"/>
      <point x="880" y="25" type="qcurve"/>
      <point x="880" y="48"/>
      <point x="918" y="77"/>
      <point x="940" y="77" type="qcurve"/>
      <point x="960" y="77"/>
      <point x="989" y="44"/>
    </contour>
    <contour>
      <point x="378" y="776" type="line"/>
      <point x="354" y="740"/>
      <point x="299" y="672"/>
      <point x="270" y="640" type="qcurve"/>
      <point x="270" y="297" type="line"/>
      <point x="153" y="297" type="line"/>
      <point x="153" y="540" type="line"/>
      <point x="144" y="533"/>
      <point x="107" y="510"/>
      <point x="62" y="486"/>
      <point x="23" y="470"/>
      <point x="14" y="470" type="qcurve"/>
      <point x="12" y="470"/>
      <point x="4" y="475"/>
      <point x="4" y="478" type="qcurve"/>
      <point x="4" y="483"/>
      <point x="15" y="494"/>
      <point x="19" y="497" type="qcurve"/>
      <point x="65" y="540"/>
      <point x="151" y="652"/>
      <point x="226" y="773"/>
      <point x="253" y="829" type="qcurve"/>
    </contour>
    <contour>
      <point x="968" y="574" type="qcurve"/>
      <point x="968" y="547"/>
      <point x="931" y="523"/>
      <point x="906" y="523" type="qcurve"/>
      <point x="668" y="523" type="line"/>
      <point x="668" y="384" type="line"/>
      <point x="787" y="384" type="line"/>
      <point x="790" y="404"/>
      <point x="822" y="436"/>
      <point x="842" y="436" type="qcurve"/>
      <point x="863" y="436"/>
      <point x="899" y="410"/>
      <point x="899" y="387" type="qcurve"/>
      <point x="899" y="367"/>
      <point x="870" y="339"/>
      <point x="850" y="339" type="qcurve"/>
      <point x="372" y="339" type="line"/>
      <point x="372" y="384" type="line"/>
      <point x="550" y="384" type="line"/>
      <point x="550" y="523" type="line"/>
      <point x="318" y="523" type="line"/>
      <point x="318" y="567" type="line"/>
      <point x="550" y="567" type="line"/>
      <point x="550" y="675" type="line"/>
      <point x="502" y="671"/>
      <point x="405" y="669"/>
      <point x="357" y="669" type="qcurve"/>
      <point x="351" y="669"/>
      <point x="338" y="671"/>
      <point x="338" y="680" type="qcurve"/>
      <point x="338" y="687"/>
      <point x="348" y="691" type="qcurve"/>
      <point x="350" y="692"/>
      <point x="356" y="692"/>
      <point x="359" y="693" type="qcurve"/>
      <point x="415" y="704"/>
      <point x="466" y="717" type="qcurve"/>
      <point x="537" y="736"/>
      <point x="701" y="787"/>
      <point x="767" y="819" type="qcurve"/>
      <point x="772" y="814"/>
      <point x="800" y="789"/>
      <point x="832" y="760"/>
      <point x="855" y="736"/>
      <point x="855" y="732" type="qcurve"/>
      <point x="855" y="723"/>
      <point x="846" y="719" type="qcurve"/>
      <point x="841" y="717"/>
      <point x="793" y="708"/>
      <point x="730" y="699"/>
      <point x="677" y="691"/>
      <point x="668" y="690" type="qcurve"/>
      <point x="668" y="567" type="line"/>
      <point x="849" y="567" type="line"/>
      <point x="849" y="590"/>
      <point x="885" y="626"/>
      <point x="908" y="626" type="qcurve"/>
      <point x="928" y="626"/>
      <point x="968" y="595"/>
    </contour>
  </outline>
</glyph>
<glyph name="u5C2C" format="2">
  <advance width="1000" height="1000"/>
  <unicode hex="5C2C"/>
  <outline>
    <contour>
      <point x="790" y="62" type="line"/>
      <point x="691" y="62" type="line"/>
      <point x="691" y="493" type="line"/>
      <point x="790" y="493" type="line"/>
    </contour>
    <contour>
      <point x="384" y="447" type="line"/>
      <point x="397" y="460"/>
      <point x="407" y="474" type="qcurve"/>
      <point x="421" y="492"/>
      <point x="435" y="512" type="qcurve"/>
      <point x="483" y="579"/>
      <point x="547" y="730"/>
      <point x="574" y="808" type="qcurve"/>
      <point x="683" y="778" type="line"/>
      <point x="680" y="769"/>
      <point x="670" y="749"/>
      <point x="663" y="734" type="qcurve"/>
      <point x="677" y="740"/>
      <point x="704" y="750"/>
      <point x="730" y="758"/>
      <point x="734" y="758" type="qcurve"/>
      <point x="747" y="758"/>
      <point x="755" y="752"/>
      <point x="758" y="742" type="qcurve"/>
      <point x="763" y="727"/>
      <point x="773" y="697"/>
      <point x="779" y="682" type="qcurve"/>
      <point x="786" y="661"/>
      <point x="812" y="606"/>
      <point x="846" y="550"/>
      <point x="880" y="501"/>
      <point x="899" y="484" type="qcurve"/>
      <point x="907" y="494"/>
      <point x="930" y="506"/>
      <point x="942" y="506" type="qcurve"/>
      <point x="960" y="506"/>
      <point x="982" y="485"/>
      <point x="982" y="469" type="qcurve"/>
      <point x="982" y="454"/>
      <point x="957" y="432"/>
      <point x="941" y="432" type="qcurve"/>
      <point x="905" y="432"/>
      <point x="830" y="471"/>
      <point x="768" y="526"/>
      <point x="747" y="553" type="qcurve"/>
      <point x="721" y="585"/>
      <point x="683" y="656"/>
      <point x="667" y="695" type="qcurve"/>
      <point x="661" y="691"/>
      <point x="651" y="684"/>
      <point x="646" y="679" type="qcurve"/>
      <point x="641" y="674"/>
      <point x="631" y="665"/>
      <point x="628" y="661" type="qcurve"/>
      <point x="625" y="658"/>
      <point x="615" y="643"/>
      <point x="609" y="635" type="qcurve"/>
      <point x="591" y="605" type="line"/>
      <point x="544" y="531"/>
      <point x="471" y="476" type="qcurve"/>
      <point x="463" y="469"/>
      <point x="428" y="446"/>
      <point x="410" y="437" type="qcurve"/>
      <point x="395" y="429"/>
      <point x="384" y="427" type="qcurve"/>
      <point x="384" y="72" type="line"/>
      <point x="384" y="47"/>
      <point x="435" y="16"/>
      <point x="506" y="2"/>
      <point x="540" y="0" type="qcurve"/>
      <point x="572" y="-3"/>
      <point x="590" y="-3" type="qcurve"/>
      <point x="714" y="-3"/>
      <point x="764" y="5" type="qcurve"/>
      <point x="814" y="13"/>
      <point x="865" y="27" type="qcurve"/>
      <point x="861" y="36"/>
      <point x="856" y="49"/>
      <point x="856" y="56" type="qcurve"/>
      <point x="856" y="79"/>
      <point x="893" y="115"/>
      <point x="917" y="115" type="qcurve"/>
      <point x="944" y="115"/>
      <point x="977" y="81"/>
      <point x="977" y="56" type="qcurve"/>
      <point x="977" y="29"/>
      <point x="919" y="-13"/>
      <point x="828" y="-44"/>
      <point x="728" y="-64"/>
      <point x="568" y="-74"/>
      <point x="553" y="-74" type="qcurve"/>
      <point x="523" y="-74"/>
      <point x="448" y="-71"/>
      <point x="373" y="-57"/>
      <point x="310" y="-26"/>
      <point x="271" y="27"/>
      <point x="271" y="68" type="qcurve"/>
      <point x="271" y="324" type="line"/>
      <point x="246" y="231"/>
      <point x="194" y="111"/>
      <point x="170" y="72" type="qcurve"/>
      <point x="128" y="7"/>
      <point x="57" y="-41" type="qcurve"/>
      <point x="43" y="-50" type="line"/>
      <point x="40" y="-52"/>
      <point x="29" y="-55" type="qcurve"/>
      <point x="20" y="-57"/>
      <point x="18" y="-51" type="qcurve"/>
      <point x="17" y="-46"/>
      <point x="20" y="-42" type="qcurve"/>
      <point x="22" y="-39"/>
      <point x="25" y="-34" type="qcurve"/>
      <point x="33" y="-22"/>
      <point x="68" y="30"/>
      <point x="82" y="60" type="qcurve"/>
      <point x="146" y="193"/>
      <point x="162" y="290" type="qcurve"/>
      <point x="185" y="450"/>
      <point x="186" y="563" type="qcurve"/>
      <point x="63" y="563" type="line"/>
      <point x="63" y="615" type="line"/>
      <point x="186" y="615" type="line"/>
      <point x="186" y="827" type="line"/>
      <point x="311" y="827" type="line"/>
      <point x="311" y="776"/>
      <point x="309" y="670"/>
      <point x="309" y="615" type="qcurve"/>
      <point x="347" y="615" type="line"/>
      <point x="351" y="637"/>
      <point x="362" y="650" type="qcurve"/>
      <point x="377" y="667"/>
      <point x="400" y="667" type="qcurve"/>
      <point x="420" y="667"/>
      <point x="451" y="635"/>
      <point x="451" y="613" type="qcurve"/>
      <point x="451" y="592"/>
      <point x="427" y="563"/>
      <point x="406" y="563" type="qcurve"/>
      <point x="306" y="563" type="line"/>
      <point x="306" y="546"/>
      <point x="303" y="516"/>
      <point x="302" y="499" type="qcurve"/>
      <point x="384" y="498" type="line"/>
    </contour>
    <contour>
      <point x="616" y="392" type="line"/>
      <point x="616" y="326"/>
      <point x="596" y="216"/>
      <point x="532" y="130"/>
      <point x="465" y="99" type="qcurve"/>
      <point x="459" y="96"/>
      <point x="432" y="84"/>
      <point x="406" y="73"/>
      <point x="400" y="73" type="qcurve"/>
      <point x="399" y="73"/>
      <point x="389" y="76"/>
      <point x="389" y="79" type="qcurve"/>
      <point x="389" y="83"/>
      <point x="396" y="87" type="qcurve"/>
      <point x="397" y="89"/>
      <point x="399" y="89" type="qcurve"/>
      <point x="429" y="110"/>
      <point x="468" y="151"/>
      <point x="486" y="184" type="qcurve"/>
      <point x="499" y="207"/>
      <point x="512" y="261"/>
      <point x="515" y="289" type="qcurve"/>
      <point x="519" y="317"/>
      <point x="519" y="372"/>
      <point x="519" y="399" type="qcurve"/>
      <point x="519" y="494" type="line"/>
      <point x="616" y="494" type="line"/>
    </contour>
  </outline>
</glyph>
<glyph name="u6174" format="2">
  <advance width="1000" height="1000"/>
  <unicode hex="6174"/>
  <outline>
    <contour>
      <point x="760" y="244" type="line"/>
      <point x="483" y="244" type="line"/>
      <point x="483" y="144" type="line"/>
      <point x="642" y="144" type="line"/>
      <point x="645" y="161"/>
      <point x="677" y="183"/>
      <point x="693" y="183" type="qcurve"/>
      <point x="710" y="183"/>
      <point x="738" y="156"/>
      <point x="738" y="139" type="qcurve"/>
      <point x="738" y="117"/>
      <point x="708" y="96"/>
      <point x="688" y="96" type="qcurve"/>
      <point x="483" y="97" type="line"/>
      <point x="483" y="-13" type="line"/>
      <point x="703" y="-13" type="line"/>
      <point x="726" y="-13"/>
      <point x="751" y="13"/>
      <point x="760" y="52"/>
      <point x="760" y="70" type="qcurve"/>
    </contour>
    <contour>
      <point x="790" y="682" type="line"/>
      <point x="790" y="718" type="line"/>
      <point x="715" y="718" type="line"/>
    </contour>
    <contour>
      <point x="150" y="569" type="qcurve"/>
      <point x="150" y="562"/>
      <point x="145" y="549"/>
      <point x="143" y="543" type="qcurve"/>
      <point x="127" y="493"/>
      <point x="84" y="393"/>
      <point x="48" y="353" type="qcurve"/>
      <point x="43" y="347"/>
      <point x="20" y="326"/>
      <point x="11" y="326" type="qcurve"/>
      <point x="3" y="326"/>
      <point x="3" y="338" type="qcurve"/>
      <point x="3" y="343"/>
      <point x="4" y="346" type="qcurve"/>
      <point x="18" y="411"/>
      <point x="34" y="543"/>
      <point x="35" y="610" type="qcurve"/>
      <point x="42" y="609"/>
      <point x="74" y="601"/>
      <point x="111" y="592"/>
      <point x="140" y="584"/>
      <point x="144" y="582" type="qcurve"/>
      <point x="150" y="577"/>
    </contour>
    <contour>
      <point x="884" y="74" type="line"/>
      <point x="884" y="16"/>
      <point x="841" y="-41"/>
      <point x="765" y="-58"/>
      <point x="715" y="-58" type="qcurve"/>
      <point x="369" y="-58" type="line"/>
      <point x="369" y="290" type="line"/>
      <point x="553" y="290" type="line"/>
      <point x="558" y="313"/>
      <point x="566" y="360"/>
      <point x="569" y="384" type="qcurve"/>
      <point x="499" y="384" type="line"/>
      <point x="499" y="477" type="line"/>
      <point x="484" y="464"/>
      <point x="434" y="429"/>
      <point x="375" y="395"/>
      <point x="320" y="372"/>
      <point x="301" y="372" type="qcurve"/>
      <point x="298" y="372"/>
      <point x="291" y="374"/>
      <point x="291" y="378" type="qcurve"/>
      <point x="291" y="383"/>
      <point x="297" y="389"/>
      <point x="301" y="392" type="qcurve"/>
      <point x="348" y="433"/>
      <point x="422" y="525"/>
      <point x="452" y="580" type="qcurve"/>
      <point x="499" y="562" type="line"/>
      <point x="499" y="636" type="line"/>
      <point x="469" y="608"/>
      <point x="399" y="564"/>
      <point x="360" y="550" type="qcurve"/>
      <point x="362" y="548"/>
      <point x="371" y="524"/>
      <point x="379" y="500"/>
      <point x="379" y="497" type="qcurve"/>
      <point x="379" y="486"/>
      <point x="367" y="486" type="qcurve"/>
      <point x="358" y="486"/>
      <point x="321" y="510"/>
      <point x="286" y="539"/>
      <point x="278" y="546" type="qcurve"/>
      <point x="278" y="-79" type="line"/>
      <point x="157" y="-79" type="line"/>
      <point x="157" y="808" type="line"/>
      <point x="278" y="808" type="line"/>
      <point x="278" y="622" type="line"/>
      <point x="328" y="648" type="line"/>
      <point x="333" y="632"/>
      <point x="342" y="599"/>
      <point x="348" y="582" type="qcurve"/>
      <point x="372" y="612"/>
      <point x="409" y="680"/>
      <point x="423" y="715" type="qcurve"/>
      <point x="499" y="682" type="line"/>
      <point x="499" y="718" type="line"/>
      <point x="336" y="718" type="line"/>
      <point x="336" y="763" type="line"/>
      <point x="606" y="763" type="line"/>
      <point x="606" y="393" type="line"/>
      <point x="614" y="392"/>
      <point x="656" y="385"/>
      <point x="697" y="376"/>
      <point x="701" y="372" type="qcurve"/>
      <point x="705" y="368"/>
      <point x="705" y="361" type="qcurve"/>
      <point x="705" y="352"/>
      <point x="673" y="323"/>
      <point x="636" y="296"/>
      <point x="628" y="290" type="qcurve"/>
      <point x="884" y="290" type="line"/>
    </contour>
    <contour>
      <point x="903" y="387" type="line"/>
      <point x="790" y="387" type="line"/>
      <point x="790" y="495" type="line"/>
      <point x="769" y="479"/>
      <point x="727" y="449"/>
      <point x="703" y="436" type="qcurve"/>
      <point x="688" y="429"/>
      <point x="638" y="406"/>
      <point x="622" y="406" type="qcurve"/>
      <point x="619" y="406"/>
      <point x="610" y="409"/>
      <point x="610" y="413" type="qcurve"/>
      <point x="610" y="416"/>
      <point x="616" y="423"/>
      <point x="618" y="425" type="qcurve"/>
      <point x="655" y="462"/>
      <point x="718" y="542"/>
      <point x="743" y="587" type="qcurve"/>
      <point x="790" y="555" type="line"/>
      <point x="790" y="636" type="line"/>
      <point x="779" y="626"/>
      <point x="734" y="597"/>
      <point x="681" y="569"/>
      <point x="633" y="550"/>
      <point x="619" y="550" type="qcurve"/>
      <point x="616" y="550"/>
      <point x="609" y="554"/>
      <point x="609" y="558" type="qcurve"/>
      <point x="609" y="563"/>
      <point x="615" y="571"/>
      <point x="618" y="574" type="qcurve"/>
      <point x="650" y="609"/>
      <point x="691" y="677"/>
      <point x="712" y="718" type="qcurve"/>
      <point x="637" y="718" type="line"/>
      <point x="637" y="763" type="line"/>
      <point x="903" y="763" type="line"/>
    </contour>
  </outline>
</glyph>
<glyph name="u6523" format="2">
  <advance width="1000" height="1000"/>
  <unicode hex="6523"/>
  <outline>
    <contour>
      <point x="505" y="487" type="line"/>
      <point x="448" y="487" type="line"/>
      <point x="448" y="367" type="line"/>
      <point x="457" y="367" type="line"/>
      <point x="483" y="367"/>
      <point x="505" y="397"/>
      <point x="505" y="421" type="qcurve"/>
    </contour>
    <contour>
      <point x="914" y="126" type="qcurve"/>
      <point x="914" y="98"/>
      <point x="878" y="77"/>
      <point x="853" y="77" type="qcurve"/>
      <point x="560" y="77" type="line"/>
      <point x="560" y="37"/>
      <point x="559" y="-29"/>
      <point x="540" y="-77"/>
      <point x="490" y="-103"/>
      <point x="441" y="-103" type="qcurve"/>
      <point x="421" y="-103"/>
      <point x="361" y="-80"/>
      <point x="306" y="-48"/>
      <point x="291" y="-34" type="qcurve"/>
      <point x="290" y="-32"/>
      <point x="286" y="-28"/>
      <point x="286" y="-26" type="qcurve"/>
      <point x="286" y="-22"/>
      <point x="292" y="-22" type="qcurve"/>
      <point x="294" y="-22"/>
      <point x="297" y="-23"/>
      <point x="298" y="-23" type="qcurve"/>
      <point x="316" y="-27"/>
      <point x="355" y="-33"/>
      <point x="374" y="-33" type="qcurve"/>
      <point x="413" y="-33"/>
      <point x="440" y="-3"/>
      <point x="440" y="47"/>
      <point x="440" y="77" type="qcurve"/>
      <point x="101" y="77" type="line"/>
      <point x="101" y="119" type="line"/>
      <point x="439" y="119" type="line"/>
      <point x="439" y="167" type="line"/>
      <point x="170" y="167" type="line"/>
      <point x="170" y="208" type="line"/>
      <point x="438" y="208" type="line"/>
      <point x="438" y="249" type="line"/>
      <point x="359" y="246"/>
      <point x="280" y="246" type="qcurve"/>
      <point x="262" y="246"/>
      <point x="222" y="246"/>
      <point x="205" y="248" type="qcurve"/>
      <point x="193" y="250"/>
      <point x="193" y="260" type="qcurve"/>
      <point x="193" y="265"/>
      <point x="202" y="269"/>
      <point x="205" y="270" type="qcurve"/>
      <point x="216" y="272"/>
      <point x="242" y="272"/>
      <point x="252" y="273" type="qcurve"/>
      <point x="345" y="280"/>
      <point x="538" y="305"/>
      <point x="626" y="336" type="qcurve"/>
      <point x="631" y="333"/>
      <point x="655" y="318"/>
      <point x="683" y="299"/>
      <point x="703" y="282"/>
      <point x="703" y="278" type="qcurve"/>
      <point x="703" y="272"/>
      <point x="695" y="267"/>
      <point x="690" y="265" type="qcurve"/>
      <point x="663" y="258"/>
      <point x="587" y="257"/>
      <point x="558" y="255" type="qcurve"/>
      <point x="558" y="208" type="line"/>
      <point x="700" y="208" type="line"/>
      <point x="709" y="250"/>
      <point x="751" y="250" type="qcurve"/>
      <point x="768" y="250"/>
      <point x="795" y="221"/>
      <point x="795" y="204" type="qcurve"/>
      <point x="795" y="189"/>
      <point x="768" y="167"/>
      <point x="754" y="167" type="qcurve"/>
      <point x="559" y="167" type="line"/>
      <point x="559" y="119" type="line"/>
      <point x="805" y="119" type="line"/>
      <point x="807" y="140"/>
      <point x="835" y="176"/>
      <point x="857" y="176" type="qcurve"/>
      <point x="878" y="176"/>
      <point x="914" y="149"/>
    </contour>
    <contour>
      <point x="605" y="442" type="line"/>
      <point x="605" y="393"/>
      <point x="568" y="347"/>
      <point x="503" y="333"/>
      <point x="461" y="333" type="qcurve"/>
      <point x="346" y="333" type="line"/>
      <point x="346" y="384" type="line"/>
      <point x="344" y="382"/>
      <point x="340" y="382" type="qcurve"/>
      <point x="328" y="382"/>
      <point x="299" y="402"/>
      <point x="272" y="429"/>
      <point x="264" y="437" type="qcurve"/>
      <point x="264" y="315" type="line"/>
      <point x="163" y="315" type="line"/>
      <point x="163" y="404" type="line"/>
      <point x="154" y="394"/>
      <point x="121" y="363"/>
      <point x="82" y="331"/>
      <point x="44" y="310"/>
      <point x="30" y="310" type="qcurve"/>
      <point x="24" y="310"/>
      <point x="24" y="315" type="qcurve"/>
      <point x="24" y="320"/>
      <point x="28" y="326" type="qcurve"/>
      <point x="41" y="347"/>
      <point x="70" y="406"/>
      <point x="92" y="468"/>
      <point x="94" y="492" type="qcurve"/>
      <point x="163" y="477" type="line"/>
      <point x="163" y="516" type="line"/>
      <point x="134" y="511"/>
      <point x="74" y="502"/>
      <point x="45" y="498" type="qcurve"/>
      <point x="28" y="559" type="line"/>
      <point x="36" y="559"/>
      <point x="50" y="560"/>
      <point x="57" y="561" type="qcurve"/>
      <point x="68" y="563"/>
      <point x="99" y="588"/>
      <point x="132" y="622"/>
      <point x="160" y="655"/>
      <point x="168" y="664" type="qcurve"/>
      <point x="150" y="665"/>
      <point x="115" y="666"/>
      <point x="97" y="667" type="qcurve"/>
      <point x="90" y="667"/>
      <point x="71" y="667"/>
      <point x="64" y="668" type="qcurve"/>
      <point x="55" y="670"/>
      <point x="55" y="676" type="qcurve"/>
      <point x="55" y="679"/>
      <point x="57" y="681" type="qcurve"/>
      <point x="92" y="723"/>
      <point x="162" y="803"/>
      <point x="191" y="849" type="qcurve"/>
      <point x="197" y="847"/>
      <point x="234" y="836"/>
      <point x="275" y="824"/>
      <point x="307" y="814"/>
      <point x="309" y="812" type="qcurve"/>
      <point x="312" y="811"/>
      <point x="312" y="806" type="qcurve"/>
      <point x="312" y="803"/>
      <point x="308" y="797" type="qcurve"/>
      <point x="304" y="791"/>
      <point x="267" y="765"/>
      <point x="220" y="734"/>
      <point x="179" y="707"/>
      <point x="170" y="701" type="qcurve"/>
      <point x="191" y="700"/>
      <point x="233" y="698"/>
      <point x="254" y="697" type="qcurve"/>
      <point x="267" y="696"/>
      <point x="294" y="695"/>
      <point x="307" y="693" type="qcurve"/>
      <point x="311" y="692"/>
      <point x="318" y="688"/>
      <point x="318" y="683" type="qcurve"/>
      <point x="318" y="680"/>
      <point x="316" y="678" type="qcurve"/>
      <point x="311" y="672"/>
      <point x="280" y="651"/>
      <point x="246" y="631"/>
      <point x="238" y="625" type="qcurve"/>
      <point x="216" y="609"/>
      <point x="170" y="578"/>
      <point x="147" y="563" type="qcurve"/>
      <point x="178" y="564"/>
      <point x="238" y="567"/>
      <point x="269" y="570" type="qcurve"/>
      <point x="255" y="581"/>
      <point x="255" y="595" type="qcurve"/>
      <point x="255" y="610"/>
      <point x="284" y="626"/>
      <point x="297" y="626" type="qcurve"/>
      <point x="311" y="626"/>
      <point x="341" y="608"/>
      <point x="341" y="592" type="qcurve"/>
      <point x="341" y="574"/>
      <point x="314" y="553"/>
      <point x="278" y="542"/>
      <point x="264" y="538" type="qcurve"/>
      <point x="264" y="493" type="line"/>
      <point x="313" y="511" type="line"/>
      <point x="321" y="483"/>
      <point x="339" y="429"/>
      <point x="346" y="402" type="qcurve"/>
      <point x="346" y="521" type="line"/>
      <point x="605" y="521" type="line"/>
    </contour>
    <contour>
      <point x="611" y="593" type="qcurve"/>
      <point x="611" y="580"/>
      <point x="588" y="564"/>
      <point x="576" y="564" type="qcurve"/>
      <point x="351" y="564" type="line"/>
      <point x="351" y="602" type="line"/>
      <point x="538" y="602" type="line"/>
      <point x="543" y="610"/>
      <point x="563" y="622"/>
      <point x="572" y="622" type="qcurve"/>
      <point x="583" y="622"/>
      <point x="611" y="606"/>
    </contour>
    <contour>
      <point x="610" y="666" type="qcurve"/>
      <point x="610" y="655"/>
      <point x="586" y="639"/>
      <point x="576" y="639" type="qcurve"/>
      <point x="349" y="639" type="line"/>
      <point x="349" y="677" type="line"/>
      <point x="538" y="677" type="line"/>
      <point x="543" y="686"/>
      <point x="562" y="696"/>
      <point x="572" y="696" type="qcurve"/>
      <point x="583" y="696"/>
      <point x="610" y="679"/>
    </contour>
    <contour>
      <point x="654" y="750" type="qcurve"/>
      <point x="654" y="736"/>
      <point x="628" y="714"/>
      <point x="614" y="714" type="qcurve"/>
      <point x="301" y="714" type="line"/>
      <point x="301" y="754" type="line"/>
      <point x="561" y="754" type="line"/>
      <point x="566" y="771"/>
      <point x="594" y="788"/>
      <point x="611" y="788" type="qcurve"/>
      <point x="625" y="788"/>
      <point x="654" y="765"/>
    </contour>
    <contour>
      <point x="983" y="353" type="qcurve"/>
      <point x="983" y="338"/>
      <point x="951" y="321"/>
      <point x="938" y="321" type="qcurve"/>
      <point x="914" y="321"/>
      <point x="870" y="361"/>
      <point x="835" y="412"/>
      <point x="824" y="430" type="qcurve"/>
      <point x="824" y="322" type="line"/>
      <point x="719" y="322" type="line"/>
      <point x="719" y="429" type="line"/>
      <point x="697" y="400"/>
      <point x="662" y="364"/>
      <point x="630" y="345" type="qcurve"/>
      <point x="625" y="342"/>
      <point x="612" y="335"/>
      <point x="605" y="335" type="qcurve"/>
      <point x="599" y="335"/>
      <point x="599" y="344" type="qcurve"/>
      <point x="601" y="346"/>
      <point x="604" y="351"/>
      <point x="605" y="353" type="qcurve"/>
      <point x="621" y="377"/>
      <point x="642" y="454"/>
      <point x="647" y="482" type="qcurve"/>
      <point x="719" y="466" type="line"/>
      <point x="719" y="513" type="line"/>
      <point x="696" y="509"/>
      <point x="649" y="503"/>
      <point x="626" y="500" type="qcurve"/>
      <point x="604" y="556" type="line"/>
      <point x="610" y="557"/>
      <point x="622" y="560"/>
      <point x="628" y="561" type="qcurve"/>
      <point x="639" y="564"/>
      <point x="669" y="589"/>
      <point x="702" y="623"/>
      <point x="730" y="655"/>
      <point x="737" y="664" type="qcurve"/>
      <point x="713" y="666"/>
      <point x="662" y="666"/>
      <point x="638" y="670" type="qcurve"/>
      <point x="632" y="672"/>
      <point x="632" y="676" type="qcurve"/>
      <point x="632" y="679"/>
      <point x="634" y="681" type="qcurve"/>
      <point x="666" y="721"/>
      <point x="725" y="805"/>
      <point x="750" y="849" type="qcurve"/>
      <point x="768" y="842"/>
      <point x="807" y="832"/>
      <point x="826" y="826" type="qcurve"/>
      <point x="835" y="824"/>
      <point x="856" y="817"/>
      <point x="866" y="816" type="qcurve"/>
      <point x="868" y="815"/>
      <point x="873" y="810"/>
      <point x="873" y="808" type="qcurve"/>
      <point x="873" y="802"/>
      <point x="868" y="797" type="qcurve"/>
      <point x="859" y="788"/>
      <point x="837" y="773"/>
      <point x="826" y="765" type="qcurve"/>
      <point x="804" y="749"/>
      <point x="760" y="718"/>
      <point x="739" y="701" type="qcurve"/>
      <point x="765" y="698"/>
      <point x="817" y="694"/>
      <point x="843" y="692" type="qcurve"/>
      <point x="852" y="691"/>
      <point x="871" y="690"/>
      <point x="879" y="688" type="qcurve"/>
      <point x="883" y="687"/>
      <point x="892" y="683"/>
      <point x="892" y="678" type="qcurve"/>
      <point x="892" y="673"/>
      <point x="860" y="650"/>
      <point x="812" y="619"/>
      <point x="761" y="589"/>
      <point x="722" y="566"/>
      <point x="715" y="562" type="qcurve"/>
      <point x="749" y="564"/>
      <point x="815" y="568"/>
      <point x="849" y="570" type="qcurve"/>
      <point x="841" y="577"/>
      <point x="824" y="591"/>
      <point x="816" y="598" type="qcurve"/>
      <point x="894" y="633" type="line"/>
      <point x="903" y="622"/>
      <point x="932" y="578"/>
      <point x="955" y="533"/>
      <point x="955" y="519" type="qcurve"/>
      <point x="955" y="513"/>
      <point x="946" y="500"/>
      <point x="939" y="500" type="qcurve"/>
      <point x="932" y="500"/>
      <point x="903" y="519"/>
      <point x="878" y="541"/>
      <point x="873" y="547" type="qcurve"/>
      <point x="861" y="543"/>
      <point x="836" y="538"/>
      <point x="824" y="534" type="qcurve"/>
      <point x="824" y="477" type="line"/>
      <point x="899" y="503" type="line"/>
      <point x="905" y="472"/>
      <point x="917" y="411"/>
      <point x="928" y="382" type="qcurve"/>
      <point x="937" y="382"/>
      <point x="963" y="377"/>
      <point x="983" y="365"/>
    </contour>
    <contour>
      <point x="582" y="818" type="qcurve"/>
      <point x="582" y="807"/>
      <point x="559" y="791"/>
      <point x="548" y="791" type="qcurve"/>
      <point x="372" y="791" type="line"/>
      <point x="372" y="829" type="line"/>
      <point x="510" y="829" type="line"/>
      <point x="515" y="837"/>
      <point x="534" y="848"/>
      <point x="544" y="848" type="qcurve"/>
      <point x="555" y="848"/>
      <point x="582" y="831"/>
    </contour>
  </outline>
</glyph>
<glyph name="u69D9" format="2">
  <advance width="1000" height="1000"/>
  <unicode hex="69D9"/>
  <outline>
    <contour>
      <point x="767" y="554" type="line"/>
      <point x="521" y="554" type="line"/>
      <point x="521" y="480" type="line"/>
      <point x="660" y="480" type="line"/>
      <point x="662" y="495"/>
      <point x="684" y="518"/>
      <point x="700" y="518" type="qcurve"/>
      <point x="715" y="518"/>
      <point x="743" y="494"/>
      <point x="743" y="478" type="qcurve"/>
      <point x="743" y="460"/>
      <point x="714" y="439"/>
      <point x="697" y="439" type="qcurve"/>
      <point x="521" y="439" type="line"/>
      <point x="521" y="372" type="line"/>
      <point x="660" y="372" type="line"/>
      <point x="662" y="388"/>
      <point x="687" y="410"/>
      <point x="703" y="410" type="qcurve"/>
      <point x="717" y="410"/>
      <point x="742" y="387"/>
      <point x="742" y="372" type="qcurve"/>
      <point x="742" y="351"/>
      <point x="714" y="333"/>
      <point x="695" y="333" type="qcurve"/>
      <point x="521" y="333" type="line"/>
      <point x="521" y="261" type="line"/>
      <point x="723" y="261" type="line"/>
      <point x="741" y="261"/>
      <point x="760" y="285"/>
      <point x="767" y="318"/>
      <point x="767" y="332" type="qcurve"/>
    </contour>
    <contour>
      <point x="597" y="46" type="qcurve"/>
      <point x="597" y="40"/>
      <point x="589" y="34" type="qcurve"/>
      <point x="568" y="18"/>
      <point x="498" y="-21"/>
      <point x="419" y="-56"/>
      <point x="343" y="-78"/>
      <point x="316" y="-78" type="qcurve"/>
      <point x="307" y="-78"/>
      <point x="307" y="-68" type="qcurve"/>
      <point x="307" y="-63"/>
      <point x="314" y="-58"/>
      <point x="318" y="-56" type="qcurve"/>
      <point x="328" y="-50"/>
      <point x="346" y="-36"/>
      <point x="356" y="-29" type="qcurve"/>
      <point x="398" y="1"/>
      <point x="468" y="77"/>
      <point x="498" y="118" type="qcurve"/>
      <point x="510" y="112"/>
      <point x="547" y="88"/>
      <point x="582" y="64"/>
      <point x="592" y="55" type="qcurve"/>
      <point x="597" y="52"/>
    </contour>
    <contour>
      <point x="394" y="591" type="qcurve"/>
      <point x="394" y="574"/>
      <point x="373" y="546"/>
      <point x="354" y="546" type="qcurve"/>
      <point x="279" y="546" type="line"/>
      <point x="279" y="463" type="line"/>
      <point x="325" y="484" type="line"/>
      <point x="354" y="401"/>
      <point x="391" y="326" type="qcurve"/>
      <point x="394" y="322"/>
      <point x="394" y="316" type="qcurve"/>
      <point x="394" y="309"/>
      <point x="385" y="299"/>
      <point x="378" y="299" type="qcurve"/>
      <point x="371" y="299"/>
      <point x="342" y="317"/>
      <point x="311" y="344"/>
      <point x="285" y="369"/>
      <point x="279" y="375" type="qcurve"/>
      <point x="279" y="-58" type="line"/>
      <point x="167" y="-58" type="line"/>
      <point x="167" y="349" type="line"/>
      <point x="155" y="319"/>
      <point x="110" y="245"/>
      <point x="54" y="180"/>
      <point x="25" y="165" type="qcurve"/>
      <point x="17" y="161"/>
      <point x="12" y="161" type="qcurve"/>
      <point x="4" y="161"/>
      <point x="4" y="168" type="qcurve"/>
      <point x="4" y="174"/>
      <point x="8" y="182" type="qcurve"/>
      <point x="41" y="255"/>
      <point x="84" y="411"/>
      <point x="94" y="490" type="qcurve"/>
      <point x="167" y="470" type="line"/>
      <point x="167" y="546" type="line"/>
      <point x="40" y="546" type="line"/>
      <point x="40" y="589" type="line"/>
      <point x="167" y="589" type="line"/>
      <point x="167" y="809" type="line"/>
      <point x="279" y="809" type="line"/>
      <point x="279" y="589" type="line"/>
      <point x="299" y="589" type="line"/>
      <point x="302" y="608"/>
      <point x="328" y="633"/>
      <point x="347" y="633" type="qcurve"/>
      <point x="364" y="633"/>
      <point x="394" y="610"/>
    </contour>
    <contour>
      <point x="993" y="171" type="qcurve"/>
      <point x="993" y="153"/>
      <point x="965" y="125"/>
      <point x="947" y="125" type="qcurve"/>
      <point x="318" y="125" type="line"/>
      <point x="318" y="170" type="line"/>
      <point x="883" y="170" type="line"/>
      <point x="886" y="193"/>
      <point x="915" y="222"/>
      <point x="939" y="222" type="qcurve"/>
      <point x="959" y="222"/>
      <point x="993" y="191"/>
    </contour>
    <contour>
      <point x="973" y="-39" type="qcurve"/>
      <point x="973" y="-55"/>
      <point x="946" y="-83"/>
      <point x="929" y="-83" type="qcurve"/>
      <point x="899" y="-83"/>
      <point x="827" y="-59"/>
      <point x="754" y="-21"/>
      <point x="691" y="24"/>
      <point x="668" y="44" type="qcurve"/>
      <point x="666" y="46"/>
      <point x="660" y="51"/>
      <point x="660" y="55" type="qcurve"/>
      <point x="660" y="58"/>
      <point x="686" y="77"/>
      <point x="721" y="100"/>
      <point x="752" y="118"/>
      <point x="756" y="121" type="qcurve"/>
      <point x="784" y="84"/>
      <point x="845" y="9"/>
      <point x="881" y="-22" type="qcurve"/>
      <point x="898" y="5"/>
      <point x="930" y="5" type="qcurve"/>
      <point x="946" y="5"/>
      <point x="973" y="-23"/>
    </contour>
    <contour>
      <point x="956" y="717" type="qcurve"/>
      <point x="956" y="697"/>
      <point x="928" y="671"/>
      <point x="908" y="671" type="qcurve"/>
      <point x="690" y="671" type="line"/>
      <point x="690" y="595" type="line"/>
      <point x="883" y="595" type="line"/>
      <point x="883" y="375" type="line"/>
      <point x="883" y="293"/>
      <point x="818" y="215"/>
      <point x="732" y="215" type="qcurve"/>
      <point x="417" y="215" type="line"/>
      <point x="417" y="595" type="line"/>
      <point x="576" y="595" type="line"/>
      <point x="576" y="671" type="line"/>
      <point x="366" y="671" type="line"/>
      <point x="366" y="716" type="line"/>
      <point x="576" y="716" type="line"/>
      <point x="576" y="822" type="line"/>
      <point x="690" y="822" type="line"/>
      <point x="690" y="716" type="line"/>
      <point x="845" y="716" type="line"/>
      <point x="846" y="736"/>
      <point x="880" y="768"/>
      <point x="899" y="768" type="qcurve"/>
      <point x="920" y="768"/>
      <point x="956" y="740"/>
    </contour>
  </outline>
</glyph>
<glyph name="u6DAE" format="2">
  <advance width="1000" height="1000"/>
  <unicode hex="6DAE"/>
  <outline>
    <contour>
      <point x="235" y="317" type="qcurve"/>
      <point x="235" y="305"/>
      <point x="228" y="252"/>
      <point x="218" y="200"/>
      <point x="215" y="187" type="qcurve"/>
      <point x="205" y="142"/>
      <point x="189" y="79"/>
      <point x="168" y="15"/>
      <point x="151" y="-32" type="qcurve"/>
      <point x="148" y="-40"/>
      <point x="131" y="-61"/>
      <point x="121" y="-61" type="qcurve"/>
      <point x="114" y="-61"/>
      <point x="82" y="-36"/>
      <point x="46" y="-1"/>
      <point x="15" y="32"/>
      <point x="8" y="38" type="qcurve"/>
      <point x="46" y="81"/>
      <point x="100" y="155"/>
      <point x="147" y="225"/>
      <point x="173" y="268" type="qcurve"/>
      <point x="183" y="284"/>
      <point x="198" y="313"/>
      <point x="206" y="326" type="qcurve"/>
      <point x="208" y="329"/>
      <point x="214" y="334"/>
      <point x="220" y="334" type="qcurve"/>
      <point x="228" y="334"/>
      <point x="235" y="324"/>
    </contour>
    <contour>
      <point x="220" y="429" type="qcurve"/>
      <point x="220" y="421"/>
      <point x="207" y="413"/>
      <point x="199" y="413" type="qcurve"/>
      <point x="193" y="413"/>
      <point x="145" y="429"/>
      <point x="114" y="438" type="qcurve"/>
      <point x="83" y="447"/>
      <point x="25" y="457"/>
      <point x="13" y="460" type="qcurve"/>
      <point x="20" y="471"/>
      <point x="45" y="518"/>
      <point x="72" y="564"/>
      <point x="80" y="572" type="qcurve"/>
      <point x="87" y="579" type="line"/>
      <point x="90" y="582"/>
      <point x="96" y="582" type="qcurve"/>
      <point x="109" y="582"/>
      <point x="153" y="545"/>
      <point x="193" y="492"/>
      <point x="220" y="442"/>
    </contour>
    <contour>
      <point x="250" y="648" type="qcurve"/>
      <point x="250" y="633"/>
      <point x="232" y="633" type="qcurve"/>
      <point x="230" y="633"/>
      <point x="227" y="633"/>
      <point x="223" y="634" type="qcurve"/>
      <point x="178" y="645"/>
      <point x="88" y="666"/>
      <point x="43" y="675" type="qcurve"/>
      <point x="99" y="776" type="line"/>
      <point x="107" y="790"/>
      <point x="118" y="799"/>
      <point x="128" y="799" type="qcurve"/>
      <point x="140" y="799"/>
      <point x="181" y="762"/>
      <point x="223" y="709"/>
      <point x="250" y="659"/>
    </contour>
    <contour>
      <point x="952" y="100" type="line"/>
      <point x="952" y="66"/>
      <point x="946" y="-2"/>
      <point x="925" y="-55"/>
      <point x="880" y="-87"/>
      <point x="841" y="-87" type="qcurve"/>
      <point x="807" y="-87"/>
      <point x="744" y="-52"/>
      <point x="727" y="-36" type="qcurve"/>
      <point x="718" y="-28"/>
      <point x="700" y="-8"/>
      <point x="683" y="12"/>
      <point x="683" y="13" type="qcurve"/>
      <point x="683" y="17"/>
      <point x="688" y="17" type="qcurve"/>
      <point x="689" y="17"/>
      <point x="693" y="16"/>
      <point x="699" y="14" type="qcurve"/>
      <point x="705" y="12"/>
      <point x="714" y="9" type="qcurve"/>
      <point x="755" y="-4"/>
      <point x="794" y="-4" type="qcurve"/>
      <point x="819" y="-4"/>
      <point x="840" y="36"/>
      <point x="845" y="90"/>
      <point x="845" y="111" type="qcurve"/>
      <point x="845" y="787" type="line"/>
      <point x="952" y="787" type="line"/>
    </contour>
    <contour>
      <point x="816" y="186" type="line"/>
      <point x="716" y="186" type="line"/>
      <point x="716" y="713" type="line"/>
      <point x="816" y="713" type="line"/>
    </contour>
    <contour>
      <point x="565" y="723" type="line"/>
      <point x="361" y="723" type="line"/>
      <point x="359" y="583" type="line"/>
      <point x="525" y="583" type="line"/>
      <point x="546" y="583"/>
      <point x="565" y="616"/>
      <point x="565" y="639" type="qcurve"/>
    </contour>
    <contour>
      <point x="588" y="358" type="line"/>
      <point x="550" y="358" type="line"/>
      <point x="550" y="74" type="line"/>
      <point x="556" y="73"/>
      <point x="570" y="71"/>
      <point x="574" y="71" type="qcurve"/>
      <point x="583" y="71"/>
      <point x="588" y="90"/>
      <point x="588" y="110"/>
      <point x="588" y="114" type="qcurve"/>
    </contour>
    <contour>
      <point x="341" y="296" type="line"/>
      <point x="340" y="286"/>
      <point x="338" y="275" type="qcurve"/>
      <point x="327" y="202"/>
      <point x="283" y="77"/>
      <point x="237" y="22" type="qcurve"/>
      <point x="236" y="18"/>
      <point x="217" y="1"/>
      <point x="198" y="-14"/>
      <point x="194" y="-14" type="qcurve"/>
      <point x="185" y="-14"/>
      <point x="185" y="-7" type="qcurve"/>
      <point x="185" y="-4"/>
      <point x="186" y="-3" type="qcurve"/>
      <point x="193" y="11"/>
      <point x="206" y="39"/>
      <point x="212" y="54" type="qcurve"/>
      <point x="236" y="117"/>
      <point x="254" y="259"/>
      <point x="256" y="405"/>
      <point x="256" y="471" type="qcurve"/>
      <point x="256" y="545"/>
      <point x="255" y="694"/>
      <point x="254" y="768" type="qcurve"/>
      <point x="674" y="768" type="line"/>
      <point x="674" y="647" type="line"/>
      <point x="674" y="595"/>
      <point x="642" y="550"/>
      <point x="583" y="539"/>
      <point x="542" y="539" type="qcurve"/>
      <point x="359" y="539" type="line"/>
      <point x="357" y="469"/>
      <point x="353" y="406" type="qcurve"/>
      <point x="353" y="402"/>
      <point x="352" y="397" type="qcurve"/>
      <point x="456" y="397" type="line"/>
      <point x="456" y="505" type="line"/>
      <point x="550" y="505" type="line"/>
      <point x="550" y="397" type="line"/>
      <point x="681" y="397" type="line"/>
      <point x="681" y="102" type="line"/>
      <point x="681" y="80"/>
      <point x="671" y="37"/>
      <point x="646" y="8"/>
      <point x="621" y="8" type="qcurve"/>
      <point x="604" y="8"/>
      <point x="565" y="35"/>
      <point x="550" y="51" type="qcurve"/>
      <point x="550" y="-91" type="line"/>
      <point x="456" y="-91" type="line"/>
      <point x="456" y="358" type="line"/>
      <point x="424" y="358" type="line"/>
      <point x="424" y="-22" type="line"/>
      <point x="336" y="-22" type="line"/>
    </contour>
  </outline>
</glyph>
<glyph name="u76FC" format="2">
  <advance width="1000" height="1000"/>
  <unicode hex="76FC"/>
  <outline>
    <contour>
      <point x="262" y="692" type="line"/>
      <point x="166" y="692" type="line"/>
      <point x="166" y="536" type="line"/>
      <point x="182" y="536" type="line"/>
      <point x="185" y="548"/>
      <point x="204" y="564"/>
      <point x="217" y="564" type="qcurve"/>
      <point x="235" y="564"/>
      <point x="254" y="542"/>
      <point x="254" y="527" type="qcurve"/>
      <point x="254" y="512"/>
      <point x="234" y="492"/>
      <point x="217" y="492" type="qcurve"/>
      <point x="166" y="492" type="line"/>
      <point x="166" y="349" type="line"/>
      <point x="182" y="349" type="line"/>
      <point x="185" y="361"/>
      <point x="205" y="376"/>
      <point x="217" y="376" type="qcurve"/>
      <point x="234" y="376"/>
      <point x="254" y="355"/>
      <point x="254" y="340" type="qcurve"/>
      <point x="254" y="325"/>
      <point x="234" y="305"/>
      <point x="217" y="305" type="qcurve"/>
      <point x="166" y="305" type="line"/>
      <point x="166" y="108" type="line"/>
      <point x="198" y="108" type="line"/>
      <point x="227" y="108"/>
      <point x="254" y="149"/>
      <point x="262" y="206"/>
      <point x="262" y="229" type="qcurve"/>
    </contour>
    <contour>
      <point x="372" y="273" type="line"/>
      <point x="372" y="226"/>
      <point x="363" y="150"/>
      <point x="332" y="95"/>
      <point x="268" y="65"/>
      <point x="211" y="65" type="qcurve"/>
      <point x="61" y="65" type="line"/>
      <point x="61" y="736" type="line"/>
      <point x="372" y="736" type="line"/>
    </contour>
    <contour>
      <point x="450" y="362" type="line"/>
      <point x="450" y="405" type="line"/>
      <point x="851" y="405" type="line"/>
      <point x="818" y="438"/>
      <point x="763" y="523"/>
      <point x="713" y="618"/>
      <point x="674" y="713"/>
      <point x="662" y="751" type="qcurve"/>
      <point x="794" y="797" type="line"/>
      <point x="809" y="707"/>
      <point x="860" y="516"/>
      <point x="908" y="434" type="qcurve"/>
      <point x="916" y="442"/>
      <point x="935" y="452"/>
      <point x="945" y="452" type="qcurve"/>
      <point x="964" y="452"/>
      <point x="991" y="427"/>
      <point x="991" y="410" type="qcurve"/>
      <point x="991" y="387"/>
      <point x="960" y="361"/>
      <point x="937" y="361" type="qcurve"/>
      <point x="917" y="361"/>
      <point x="882" y="380"/>
      <point x="864" y="394" type="qcurve"/>
      <point x="862" y="350"/>
      <point x="856" y="244"/>
      <point x="851" y="188" type="qcurve"/>
      <point x="846" y="131"/>
      <point x="828" y="27"/>
      <point x="813" y="-8" type="qcurve"/>
      <point x="800" y="-39"/>
      <point x="754" y="-78"/>
      <point x="717" y="-78" type="qcurve"/>
      <point x="684" y="-78"/>
      <point x="616" y="-44"/>
      <point x="558" y="5"/>
      <point x="541" y="29" type="qcurve"/>
      <point x="535" y="38"/>
      <point x="535" y="40" type="qcurve"/>
      <point x="535" y="47"/>
      <point x="544" y="47" type="qcurve"/>
      <point x="546" y="47"/>
      <point x="551" y="45"/>
      <point x="552" y="44" type="qcurve"/>
      <point x="579" y="31"/>
      <point x="638" y="10"/>
      <point x="668" y="10" type="qcurve"/>
      <point x="691" y="10"/>
      <point x="709" y="36"/>
      <point x="715" y="57" type="qcurve"/>
      <point x="726" y="97"/>
      <point x="737" y="206"/>
      <point x="742" y="318"/>
      <point x="743" y="362" type="qcurve"/>
    </contour>
    <contour>
      <point x="633" y="755" type="line"/>
      <point x="618" y="706"/>
      <point x="574" y="592"/>
      <point x="517" y="482"/>
      <point x="443" y="393"/>
      <point x="398" y="366" type="qcurve"/>
      <point x="394" y="363"/>
      <point x="388" y="363" type="qcurve"/>
      <point x="378" y="363"/>
      <point x="378" y="372" type="qcurve"/>
      <point x="378" y="376"/>
      <point x="386" y="393"/>
      <point x="392" y="403" type="qcurve"/>
      <point x="397" y="414"/>
      <point x="411" y="439" type="qcurve"/>
      <point x="450" y="519"/>
      <point x="495" y="703"/>
      <point x="504" y="794" type="qcurve"/>
    </contour>
    <contour>
      <point x="542" y="362" type="qcurve"/>
      <point x="661" y="325" type="line"/>
      <point x="633" y="227"/>
      <point x="535" y="71"/>
      <point x="393" y="-41"/>
      <point x="300" y="-66" type="qcurve"/>
      <point x="290" y="-68"/>
      <point x="269" y="-73"/>
      <point x="258" y="-73" type="qcurve"/>
      <point x="254" y="-73"/>
      <point x="244" y="-69"/>
      <point x="244" y="-64" type="qcurve"/>
      <point x="244" y="-61"/>
      <point x="259" y="-51"/>
      <point x="267" y="-46" type="qcurve"/>
      <point x="295" y="-29" type="line"/>
      <point x="351" y="7"/>
      <point x="392" y="54" type="qcurve"/>
      <point x="507" y="183"/>
    </contour>
  </outline>
</glyph>
<glyph name="u8B8C" format="2">
  <advance width="1000" height="1000"/>
  <unicode hex="8B8C"/>
  <outline>
    <contour>
      <point x="234" y="202" type="line"/>
      <point x="170" y="202" type="line"/>
      <point x="170" y="-19" type="line"/>
      <point x="183" y="-19" type="line"/>
      <point x="206" y="-19"/>
      <point x="227" y="18"/>
      <point x="234" y="66"/>
      <point x="234" y="82" type="qcurve"/>
    </contour>
    <contour>
      <point x="656" y="456" type="line"/>
      <point x="628" y="456" type="line"/>
      <point x="628" y="227" type="line"/>
      <point x="646" y="227"/>
      <point x="656" y="257"/>
      <point x="656" y="271" type="qcurve"/>
    </contour>
    <contour>
      <point x="701" y="676" type="line"/>
      <point x="616" y="676" type="line"/>
      <point x="616" y="584" type="line"/>
      <point x="655" y="584" type="line"/>
      <point x="678" y="584"/>
      <point x="701" y="624"/>
      <point x="701" y="643" type="qcurve"/>
    </contour>
    <contour>
      <point x="342" y="91" type="line"/>
      <point x="342" y="15"/>
      <point x="272" y="-59"/>
      <point x="195" y="-59" type="qcurve"/>
      <point x="62" y="-59" type="line"/>
      <point x="62" y="244" type="line"/>
      <point x="342" y="244" type="line"/>
    </contour>
    <contour>
      <point x="530" y="90" type="qcurve"/>
      <point x="530" y="87"/>
      <point x="528" y="83" type="qcurve"/>
      <point x="520" y="63"/>
      <point x="485" y="10"/>
      <point x="441" y="-42"/>
      <point x="394" y="-82"/>
      <point x="373" y="-91" type="qcurve"/>
      <point x="371" y="-92"/>
      <point x="353" y="-98"/>
      <point x="351" y="-98" type="qcurve"/>
      <point x="341" y="-98"/>
      <point x="341" y="-88" type="qcurve"/>
      <point x="341" y="-83"/>
      <point x="345" y="-74"/>
      <point x="347" y="-70" type="qcurve"/>
      <point x="372" y="-22"/>
      <point x="410" y="77"/>
      <point x="418" y="130" type="qcurve"/>
      <point x="518" y="102" type="line"/>
      <point x="522" y="101"/>
      <point x="530" y="95"/>
    </contour>
    <contour>
      <point x="335" y="365" type="qcurve"/>
      <point x="335" y="346"/>
      <point x="308" y="320"/>
      <point x="288" y="320" type="qcurve"/>
      <point x="74" y="320" type="line"/>
      <point x="74" y="366" type="line"/>
      <point x="236" y="366" type="line"/>
      <point x="239" y="385"/>
      <point x="267" y="410"/>
      <point x="286" y="410" type="qcurve"/>
      <point x="303" y="410"/>
      <point x="335" y="383"/>
    </contour>
    <contour>
      <point x="647" y="36" type="qcurve"/>
      <point x="647" y="13"/>
      <point x="648" y="-44"/>
      <point x="643" y="-67" type="qcurve"/>
      <point x="638" y="-90"/>
      <point x="616" y="-90" type="qcurve"/>
      <point x="608" y="-90"/>
      <point x="596" y="-77"/>
      <point x="594" y="-70" type="qcurve"/>
      <point x="580" y="-29"/>
      <point x="554" y="53"/>
      <point x="540" y="93" type="qcurve"/>
      <point x="559" y="97"/>
      <point x="613" y="108"/>
      <point x="632" y="108" type="qcurve"/>
      <point x="640" y="108"/>
      <point x="645" y="101"/>
      <point x="646" y="94" type="qcurve"/>
      <point x="648" y="84"/>
      <point x="647" y="47"/>
    </contour>
    <contour>
      <point x="335" y="491" type="qcurve"/>
      <point x="335" y="472"/>
      <point x="308" y="445"/>
      <point x="288" y="445" type="qcurve"/>
      <point x="74" y="445" type="line"/>
      <point x="74" y="492" type="line"/>
      <point x="236" y="492" type="line"/>
      <point x="239" y="511"/>
      <point x="267" y="536"/>
      <point x="286" y="536" type="qcurve"/>
      <point x="303" y="536"/>
      <point x="335" y="509"/>
    </contour>
    <contour>
      <point x="777" y="-61" type="qcurve"/>
      <point x="777" y="-72"/>
      <point x="768" y="-94"/>
      <point x="754" y="-94" type="qcurve"/>
      <point x="747" y="-94"/>
      <point x="738" y="-87"/>
      <point x="734" y="-81" type="qcurve"/>
      <point x="728" y="-72"/>
      <point x="716" y="-38"/>
      <point x="711" y="-28" type="qcurve"/>
      <point x="697" y="4"/>
      <point x="670" y="68"/>
      <point x="656" y="100" type="qcurve"/>
      <point x="668" y="103"/>
      <point x="706" y="111"/>
      <point x="745" y="117"/>
      <point x="756" y="117" type="qcurve"/>
      <point x="764" y="117"/>
      <point x="769" y="111"/>
      <point x="770" y="104" type="qcurve"/>
      <point x="773" y="91"/>
      <point x="773" y="59"/>
      <point x="774" y="45" type="qcurve"/>
      <point x="775" y="19"/>
      <point x="777" y="-35"/>
    </contour>
    <contour>
      <point x="967" y="-79" type="qcurve"/>
      <point x="967" y="-99"/>
      <point x="948" y="-99" type="qcurve"/>
      <point x="935" y="-99"/>
      <point x="898" y="-66"/>
      <point x="856" y="-16"/>
      <point x="817" y="39"/>
      <point x="788" y="85"/>
      <point x="782" y="95" type="qcurve"/>
      <point x="794" y="99"/>
      <point x="839" y="115"/>
      <point x="883" y="130"/>
      <point x="892" y="130" type="qcurve"/>
      <point x="897" y="130"/>
      <point x="900" y="127"/>
      <point x="902" y="122" type="qcurve"/>
      <point x="907" y="112"/>
      <point x="913" y="89"/>
      <point x="916" y="78" type="qcurve"/>
      <point x="927" y="41"/>
      <point x="952" y="-32"/>
      <point x="965" y="-68" type="qcurve"/>
      <point x="966" y="-71"/>
      <point x="967" y="-76"/>
    </contour>
    <contour>
      <point x="389" y="628" type="qcurve"/>
      <point x="389" y="607"/>
      <point x="362" y="580"/>
      <point x="341" y="580" type="qcurve"/>
      <point x="22" y="580" type="line"/>
      <point x="22" y="627" type="line"/>
      <point x="289" y="627" type="line"/>
      <point x="292" y="647"/>
      <point x="317" y="675"/>
      <point x="339" y="675" type="qcurve"/>
      <point x="359" y="675"/>
      <point x="389" y="648"/>
    </contour>
    <contour>
      <point x="716" y="305" type="line"/>
      <point x="716" y="275"/>
      <point x="708" y="223"/>
      <point x="676" y="190"/>
      <point x="639" y="190" type="qcurve"/>
      <point x="567" y="190" type="line"/>
      <point x="567" y="492" type="line"/>
      <point x="716" y="492" type="line"/>
    </contour>
    <contour>
      <point x="983" y="723" type="qcurve"/>
      <point x="983" y="704"/>
      <point x="954" y="676"/>
      <point x="934" y="676" type="qcurve"/>
      <point x="815" y="676" type="line"/>
      <point x="815" y="653" type="line"/>
      <point x="815" y="603"/>
      <point x="770" y="557"/>
      <point x="699" y="546"/>
      <point x="659" y="546" type="qcurve"/>
      <point x="543" y="546" type="line"/>
      <point x="543" y="146" type="line"/>
      <point x="448" y="146" type="line"/>
      <point x="448" y="233" type="line"/>
      <point x="433" y="219"/>
      <point x="402" y="190"/>
      <point x="385" y="179" type="qcurve"/>
      <point x="340" y="278" type="line"/>
      <point x="367" y="284"/>
      <point x="422" y="295"/>
      <point x="448" y="302" type="qcurve"/>
      <point x="448" y="416" type="line"/>
      <point x="358" y="416" type="line"/>
      <point x="358" y="461" type="line"/>
      <point x="447" y="461" type="line"/>
      <point x="447" y="554" type="line"/>
      <point x="509" y="554" type="line"/>
      <point x="509" y="676" type="line"/>
      <point x="385" y="676" type="line"/>
      <point x="385" y="719" type="line"/>
      <point x="507" y="719" type="line"/>
      <point x="507" y="829" type="line"/>
      <point x="617" y="829" type="line"/>
      <point x="617" y="719" type="line"/>
      <point x="701" y="719" type="line"/>
      <point x="701" y="829" type="line"/>
      <point x="815" y="829" type="line"/>
      <point x="815" y="719" type="line"/>
      <point x="882" y="719" type="line"/>
      <point x="884" y="742"/>
      <point x="911" y="769"/>
      <point x="934" y="769" type="qcurve"/>
      <point x="952" y="769"/>
      <point x="983" y="742"/>
    </contour>
    <contour>
      <point x="998" y="232" type="qcurve"/>
      <point x="998" y="209"/>
      <point x="966" y="176"/>
      <point x="917" y="154"/>
      <point x="867" y="144"/>
      <point x="849" y="144" type="qcurve"/>
      <point x="798" y="144"/>
      <point x="742" y="181"/>
      <point x="742" y="237" type="qcurve"/>
      <point x="742" y="547" type="line"/>
      <point x="845" y="547" type="line"/>
      <point x="845" y="407" type="line"/>
      <point x="865" y="433"/>
      <point x="898" y="488"/>
      <point x="917" y="514" type="qcurve"/>
      <point x="921" y="510"/>
      <point x="946" y="482"/>
      <point x="974" y="450"/>
      <point x="994" y="424"/>
      <point x="994" y="421" type="qcurve"/>
      <point x="994" y="415"/>
      <point x="954" y="396"/>
      <point x="899" y="375"/>
      <point x="852" y="360"/>
      <point x="845" y="358" type="qcurve"/>
      <point x="845" y="244" type="line"/>
      <point x="845" y="222"/>
      <point x="864" y="197"/>
      <point x="888" y="197" type="qcurve"/>
      <point x="895" y="197"/>
      <point x="908" y="199"/>
      <point x="914" y="203" type="qcurve"/>
      <point x="910" y="209"/>
      <point x="904" y="223"/>
      <point x="904" y="230" type="qcurve"/>
      <point x="904" y="250"/>
      <point x="934" y="276"/>
      <point x="953" y="276" type="qcurve"/>
      <point x="972" y="276"/>
      <point x="998" y="252"/>
    </contour>
    <contour>
      <point x="344" y="771" type="qcurve"/>
      <point x="344" y="751"/>
      <point x="317" y="725"/>
      <point x="297" y="725" type="qcurve"/>
      <point x="74" y="725" type="line"/>
      <point x="74" y="772" type="line"/>
      <point x="245" y="772" type="line"/>
      <point x="248" y="791"/>
      <point x="276" y="816"/>
      <point x="295" y="816" type="qcurve"/>
      <point x="312" y="816"/>
      <point x="344" y="789"/>
    </contour>
  </outline>
</glyph>
